<?xml version="1.0" encoding="UTF-8" standalone="no"?>
<svg
   stroke="#00a2ab"
   fill="none"
   stroke-width="0"
   viewBox="0 0 1120.7851 256.23164"
   height="100.09048"
   width="437.80667"
   version="1.1"
   id="svg1"
   sodipodi:docname="icon.svg"
   inkscape:version="1.3.2 (091e20ef0f, 2023-11-25, custom)"
   xmlns:inkscape="http://www.inkscape.org/namespaces/inkscape"
   xmlns:sodipodi="http://sodipodi.sourceforge.net/DTD/sodipodi-0.dtd"
   xmlns="http://www.w3.org/2000/svg"
   xmlns:svg="http://www.w3.org/2000/svg">
  <defs
     id="defs1" />
  <sodipodi:namedview
     id="namedview1"
     pagecolor="#000000"
     bordercolor="#000000"
     borderopacity="0.25"
     inkscape:showpageshadow="2"
     inkscape:pageopacity="0.0"
     inkscape:pagecheckerboard="0"
     inkscape:deskcolor="#d1d1d1"
     showguides="true"
     inkscape:zoom="1.565"
     inkscape:cx="121.08626"
     inkscape:cy="90.095847"
     inkscape:window-width="1703"
     inkscape:window-height="1032"
     inkscape:window-x="0"
     inkscape:window-y="0"
     inkscape:window-maximized="1"
     inkscape:current-layer="svg1">
    <sodipodi:guide
       position="670.38356,140.17013"
       orientation="1,0"
       id="guide5"
       inkscape:locked="false" />
  </sodipodi:namedview>
  <path
     stroke-linecap="round"
     stroke-miterlimit="10"
     stroke-width="48"
     d="m 248,120 c 0,0 -48,-96 -126,-96 -54.12,0 -98,43 -98,96 0,53 43.88,96 98,96 30,0 56.45,-13.18 78,-32 m 48,-64 c 0,0 48,96 126,96 54.12,0 98,-43 98,-96 0,-53 -43.88,-96 -98,-96 -29.37,0 -56.66,13.75 -78,32"
     id="path1" />
  <path
     d="m 537.72656,202.61465 h 83.94547 V 184.74232 H 590.29504 V 53.25304 h 31.37699 V 35.12539 h -83.94547 v 18.12765 h 31.377 v 131.48928 h -31.377 z m 111.72086,0 h 20.93616 v -86.55314 c 14.29787,-14.8085 24.51063,-22.21275 39.06381,-22.21275 20.42552,0 28.59573,10.97872 28.59573,34.46806 v 74.29783 h 21.19147 v -76.85102 c 0,-32.93615 -13.78722,-50.29784 -43.14891,-50.29784 -18.949,0 -32.9258,10.264179 -45.70212,23.345674 v -20.26374 l -20.93614,-0.0181 z m 170.75402,0 h 20.68084 V 67.5509 c 0,-20.1702 9.19149,-32.68083 31.14892,-32.68083 10.97872,0 18.89359,1.53191 28.85109,5.87234 l 4.851,-15.57446 c -11.7447,-5.10638 -23.48933,-7.40425 -35.74464,-7.40425 -33.95743,0 -49.78721,20.1702 -49.78721,50.29784 z M 1003.4428,95.886821 1054.391,205.67335 c -7.5861,19.6853 -17.2778,31.7774 -39.0882,33.1966 -3.8298,0 -7.9149,-1.02127 -10.9788,-2.04255 l -4.34041,16.85105 c 4.08511,1.53192 10.46811,2.55319 16.34041,2.55319 28.0851,0 43.1489,-18.63828 52.3404,-43.14891 l 52.1207,-134.553116 -17.3973,6e-6 -39.3828,102.19584 -47.4256,-102.19584 H 949.29759 V 17.763694 l -20.4255,-6e-6 V 78.52962 l -144.15999,0.0181 v 17.08827 l 143.39399,0.25532 v 58.46805 c 0,30.63828 11.7447,51.31912 48.2553,51.31912 h 38.53851 l 0,-17.10637 c 0,0 -22.45341,0 -34.19801,0 -24,0 -31.4043,-11.74468 -31.4043,-33.95743 V 95.89131 Z"
     id="text1"
     style="font-size:255.319px;font-family:SourceCodeVF;-inkscape-font-specification:SourceCodeVF;fill:#f9f9f9;stroke:#003d42;stroke-linecap:round;stroke-linejoin:round"
     aria-label="Infty"
     sodipodi:nodetypes="ccccccccccccccccssccssccccccssccsscccsccsccccccccccccsscccscc" />
</svg>
