<?xml version="1.0" encoding="UTF-8"?>

<svg width="159.42334mm" height="34.206802mm" viewBox="0 0 159.42334 34.206802" version="1.1"
  xmlns="http://www.w3.org/2000/svg"
  xmlns:svg="http://www.w3.org/2000/svg">
  <defs id="defs1" />
  <g id="layer1">
    <path style="fill:#fff" d="m 0.27822418,34.096333 c -0.132181,-0.0839 -0.160304,-1.7779 -0.133195,-8.02294 l 0.03437,-7.91657 H 8.1710822 16.162765 l 0.03473,7.85849 c 0.03213,7.26962 0.01774,7.87097 -0.191951,8.02498 -0.175223,0.1287 -1.967038,0.16603 -7.8932178,0.16446 -4.216596,-10e-4 -7.74193902,-0.0499 -7.83409702,-0.10842 z m 17.82300782,-0.0807 c -0.216657,-0.26106 -0.04279,-15.67653 0.178469,-15.82345 0.08105,-0.0538 3.626748,-0.0988 7.879322,-0.0999 5.83846,-0.002 7.771095,0.0371 7.891786,0.15779 0.23078,0.23078 0.23078,15.56611 0,15.79689 -0.120683,0.12069 -2.074213,0.15984 -7.975373,0.15984 -6.628148,0 -7.839646,-0.0291 -7.974204,-0.19118 z m 63.460135,-6.62352 c -0.36629,-0.0688 -1.15164,-0.35927 -1.74522,-0.64539 -1.677731,-0.80871 -2.77263,-2.11334 -3.464259,-4.12785 -0.197857,-0.5763 -0.250169,-1.10194 -0.24523,-2.46411 0.0056,-1.5308 0.04831,-1.8524 0.368825,-2.77415 0.876962,-2.52202 2.733804,-4.23675 5.209654,-4.81093 1.77571,-0.41182 4.93524,-0.14259 5.55082,0.47299 0.21571,0.21571 0.25257,0.45552 0.25257,1.64325 0,0.77977 -0.0583,1.4267 -0.13267,1.47268 -0.073,0.0451 -0.59431,-0.14617 -1.15854,-0.42502 -0.94639,-0.46773 -1.11415,-0.50702 -2.16494,-0.50702 -0.97596,0 -1.24703,0.053 -1.89302,0.37025 -1.72987,0.8495 -2.62919,2.63185 -2.47357,4.9023 0.11873,1.73218 0.81607,2.93665 2.11765,3.65763 0.66024,0.36572 0.80884,0.39345 2.10883,0.39345 1.34843,0 1.43386,-0.0178 2.38392,-0.49516 0.54196,-0.27234 1.03644,-0.4636 1.09885,-0.42502 0.15697,0.097 0.14333,2.54686 -0.0158,2.84424 -0.41252,0.77081 -3.76035,1.3008 -5.79785,0.91786 z m 22.225133,-0.10896 c -2.46296,-0.6457 -4.038003,-2.12026 -4.805153,-4.4986 -0.42621,-1.32135 -0.47999,-3.72847 -0.11379,-5.09389 0.71832,-2.67837 2.562893,-4.51297 5.150853,-5.12301 1.37604,-0.32436 3.62893,-0.27141 4.84199,0.11381 2.32681,0.7389 3.77079,2.28644 4.42542,4.74281 0.31172,1.1697 0.30489,3.61176 -0.0134,4.79501 -0.71661,2.66379 -2.70225,4.5706 -5.33847,5.12654 -1.27086,0.26801 -2.98489,0.24211 -4.14742,-0.0627 z m 4.15551,-2.96465 c 1.09485,-0.57811 1.72529,-1.65945 1.951,-3.3464 0.37467,-2.80025 -0.65129,-5.03363 -2.57471,-5.60483 -0.87435,-0.25965 -1.48293,-0.26195 -2.33529,-0.009 -1.50938,0.44824 -2.44041,1.67155 -2.72416,3.57935 -0.37111,2.49518 0.62781,4.8446 2.32561,5.46974 0.73131,0.26927 2.78196,0.21489 3.35755,-0.089 z m 9.84831,3.14219 c -1.43993,-0.29989 -2.17441,-0.49954 -2.37361,-0.64519 -0.20159,-0.1474 -0.23885,-0.39608 -0.24824,-1.65665 -0.006,-0.81577 0.0294,-1.52367 0.0789,-1.57313 0.0495,-0.0495 0.43208,0.0968 0.85028,0.32495 1.0484,0.57204 2.04259,0.83931 3.12205,0.83931 1.40404,0 2.10032,-0.48951 2.10032,-1.47661 0,-0.70964 -0.46404,-1.09656 -2.4641,-2.05457 -2.15278,-1.03117 -2.69388,-1.42753 -3.18703,-2.33455 -0.5054,-0.92955 -0.6258,-2.40484 -0.28098,-3.443 0.33761,-1.01645 1.29532,-1.99532 2.49171,-2.54678 0.86322,-0.39788 1.12892,-0.45411 2.39137,-0.50613 1.54127,-0.0635 3.27094,0.21754 3.64578,0.59239 0.27931,0.2793 0.29149,2.81859 0.014,2.92506 -0.10247,0.0393 -0.48064,-0.0777 -0.84038,-0.25995 -0.8346,-0.42292 -2.46294,-0.66382 -3.16911,-0.46883 -0.28139,0.0777 -0.68867,0.31832 -0.90507,0.53472 -0.34423,0.34422 -0.38428,0.46193 -0.32006,0.94066 0.10365,0.77283 0.58791,1.19128 2.18519,1.88829 2.99745,1.30798 3.90172,2.34414 3.90172,4.47079 0,1.32319 -0.30479,2.06753 -1.21087,2.95712 -0.80119,0.78662 -1.65627,1.20597 -2.96517,1.4542 -0.64821,0.12293 -2.30158,0.14518 -2.81669,0.0379 z m 13.71906,-0.16633 c -2.51872,-0.62972 -4.26,-2.32322 -4.94437,-4.80869 -0.37813,-1.37329 -0.31669,-3.88158 0.12888,-5.26119 0.80651,-2.49717 2.49264,-4.05897 5.02703,-4.65636 1.11851,-0.26365 3.43197,-0.26429 4.45559,-10e-4 2.46514,0.63351 4.13344,2.32441 4.79246,4.85739 0.30384,1.16783 0.31179,3.51177 0.0158,4.66182 -0.71821,2.79056 -2.65789,4.68905 -5.38021,5.26595 -1.19674,0.25361 -2.9488,0.22893 -4.09517,-0.0577 z m 3.84935,-2.88039 c 0.73297,-0.30626 1.4764,-1.04998 1.8288,-1.82952 0.28541,-0.63134 0.31561,-0.88298 0.31561,-2.62948 0,-2.14815 -0.14032,-2.66456 -0.98559,-3.62727 -0.6795,-0.77392 -1.48728,-1.09651 -2.74386,-1.09578 -0.92845,5.4e-4 -1.15734,0.0511 -1.77889,0.39273 -0.88817,0.48823 -1.37809,1.073 -1.77512,2.1188 -0.25773,0.67888 -0.30718,1.05464 -0.29978,2.27812 0.01,1.58661 0.18045,2.24801 0.81912,3.17093 0.4076,0.589 0.94183,0.99789 1.62082,1.24053 0.67499,0.24121 2.40223,0.23024 2.99889,-0.0191 z m 19.73959,2.87639 c -1.00553,-0.33211 -1.83974,-1.12801 -2.23933,-2.13648 -0.27338,-0.68996 -0.29662,-1.01677 -0.36501,-5.13231 l -0.073,-4.39543 h -2.4641 -2.46411 l -0.0348,5.65559 c -0.0205,3.33079 -0.0866,5.70742 -0.16088,5.7817 -0.13217,0.13217 -2.56479,0.23799 -2.96773,0.1291 -0.21727,-0.0587 -0.23323,-0.44433 -0.23513,-5.6815 -0.001,-3.09017 -0.0551,-5.70228 -0.11992,-5.80467 -0.0846,-0.13361 -0.36974,-0.17925 -1.0099,-0.16164 -1.43404,0.0394 -1.39884,0.0761 -1.39884,-1.45675 0,-1.51615 -0.0844,-1.43026 1.46514,-1.49124 l 0.86577,-0.0341 0.0799,-1.66494 c 0.0864,-1.7993403 0.25609,-2.4328603 0.90425,-3.3749303 0.72096,-1.04787 1.86694,-1.72707 3.31848,-1.96679 1.05638,-0.17445 2.59621,-0.0599 2.82004,0.2098 0.0908,0.10947 0.13189,0.6745 0.10814,1.48872 -0.0358,1.2277 -0.0555,1.30949 -0.30468,1.26884 -1.79678,-0.29307 -2.47935,-0.12578 -3.01732,0.7395 -0.27617,0.4442 -0.31255,0.66548 -0.31255,1.9012503 v 1.39855 h 2.46411 2.4641 l 0.0381,-1.45724 c 0.0209,-0.80148 0.10054,-1.5325103 0.1769,-1.6245203 0.15687,-0.18901 2.60759,-0.98068 3.03583,-0.98068 0.26967,0 0.27887,0.0611 0.27887,1.8538303 0,1.01961 0.0364,1.94864 0.0808,2.06452 0.0668,0.17414 0.33062,0.21068 1.52084,0.21068 0.792,0 1.53481,0.0364 1.65069,0.0808 0.17243,0.0662 0.21068,0.31963 0.21068,1.39601 0,1.54808 0.14992,1.43649 -1.99792,1.48708 l -1.39854,0.0329 v 3.86265 c 0,4.20909 0.0375,4.44138 0.79699,4.93903 0.33093,0.21683 1.38512,0.21071 2.23803,-0.013 l 0.37112,-0.0973 -0.0381,1.3814 -0.0381,1.3814 -0.53278,0.181 c -0.92152,0.31306 -2.81135,0.32785 -3.71597,0.0291 z m -109.799217,-0.0979 c -0.131127,-0.0529 -0.166494,-2.19795 -0.166494,-10.09801 0,-9.0239603 0.02115,-10.0389703 0.210686,-10.1117003 0.115877,-0.0445 1.194754,-0.0808 2.397505,-0.0808 2.009226,0 2.208452,0.0216 2.453208,0.26639 0.146514,0.14651 0.26639,0.32222 0.26639,0.39046 0,0.0682 1.132978,3.0201703 2.51773,6.5598403 1.384752,3.53967 2.617726,6.78041 2.739943,7.20164 0.123397,0.42529 0.299157,0.76587 0.395243,0.76587 0.09517,0 0.249026,-0.28471 0.34191,-0.63268 0.09288,-0.34797 0.975564,-2.67055 1.961512,-5.16129 0.985948,-2.49074 2.182947,-5.51759 2.659998,-6.7263403 0.477051,-1.20874 0.960046,-2.3026 1.073323,-2.4308 0.180742,-0.20455 0.47968,-0.23309 2.441763,-0.23309 1.326294,0 2.268837,0.0534 2.317004,0.13138 0.108078,0.17488 0.11222,19.9809203 0.0042,20.0889403 -0.101029,0.10103 -2.834683,0.16271 -3.166455,0.0714 -0.218537,-0.0601 -0.233424,-0.55215 -0.238423,-7.88033 -0.0059,-8.58004 0.02339,-8.33267 -0.728646,-6.16455 -0.555192,1.60062 -5.392021,13.78465 -5.525062,13.91769 -0.201117,0.20111 -2.183682,0.23705 -2.444667,0.0443 -0.195421,-0.14432 -5.41112,-12.92773 -6.003635,-14.7146 -0.127531,-0.3846 -0.287879,-0.69927 -0.35633,-0.69927 -0.07578,0 -0.122068,3.00274 -0.118352,7.67676 0.0034,4.22221 -0.02245,7.70531 -0.05735,7.7402 -0.08931,0.0893 -2.77272,0.1602 -2.975006,0.0786 z m 25.145159,-0.0421 c -0.143453,-0.0887 -0.211991,-14.16019 -0.07009,-14.38979 0.120396,-0.1948 3.037857,-0.16908 3.235465,0.0285 0.120277,0.12027 0.159834,1.8992 0.159834,7.18782 0,6.85631 -0.0064,7.03143 -0.262427,7.16845 -0.27122,0.14515 -2.829254,0.14932 -3.062783,0.005 z m 19.728375,0.01 c -0.23803,-0.14711 -0.23187,-14.26566 0.006,-14.41672 0.27976,-0.17746 2.9593,-0.13839 3.14353,0.0458 0.0879,0.0879 0.15983,0.50747 0.15983,0.93236 0,0.42489 0.0591,0.77253 0.1313,0.77253 0.0722,0 0.28953,-0.23909 0.48291,-0.53131 0.83396,-1.26019 2.50353,-1.82522 4.0809,-1.3811 0.20598,0.058 0.23309,0.25829 0.23309,1.72159 0,1.82801 0.009,1.81297 -0.84522,1.45617 -1.12023,-0.46806 -2.46248,-0.0662 -3.24518,0.97154 -0.77653,1.02956 -0.8378,1.47598 -0.8378,6.10409 0,3.05083 -0.0419,4.18951 -0.15686,4.26054 -0.20951,0.12949 -2.9567,0.18566 -3.15279,0.0645 z M 0.18786418,16.148343 c -0.18775299724,-0.18775 -0.20666,-1.0641 -0.176007,-8.1581703 l 0.03434,-7.94783004 H 8.1710742 16.295951 l 0.03435,7.97677004 c 0.0249,5.7808203 -0.0071,8.0267003 -0.116205,8.1581703 -0.123927,0.14933 -1.536037,0.18141 -7.9832238,0.18141 -6.959499,0 -7.85611402,-0.0234 -8.04301502,-0.21035 z m 17.83418882,0.0439 c -0.03502,-0.0916 -0.04812,-3.76275 -0.02912,-8.1581703 l 0.03455,-7.99169004 7.910156,-0.0344 c 5.731575,-0.0249 7.960122,0.007 8.091578,0.11621 0.250435,0.20784 0.271409,15.82485034 0.02159,16.07467034 -0.237147,0.23715 -15.938015,0.23062 -16.028756,-0.007 z m 52.948976,-5.99376 C 70.244904,9.7042827 69.972152,9.2316827 69.983223,8.4868727 c 0.01736,-1.16789 0.820903,-1.91795 2.054718,-1.91795 1.244004,0 2.049149,0.75885 2.049149,1.93133 0,1.12092 -0.899488,1.9979203 -2.049149,1.9979203 -0.43052,0 -0.764361,-0.0938 -1.066912,-0.29969 z" />
  </g>
</svg>