<?xml version="1.0" encoding="UTF-8"?>
<svg viewBox="0 0 666.99828 200.78123" height="200.78122" width="666.99829" xml:space="preserve" version="1.1"
  xmlns="http://www.w3.org/2000/svg">
  <defs>
    <path d="M 0,595.28 H 841.89 V 0 H 0 Z" />
  </defs>
  <g transform="matrix(1.3333333,0,0,-1.3333333,-227.92676,497.24403)" style="fill:#fff">
    <g transform="translate(358.7515,292.2031)" style="fill:#fff">
      <path style="fill:#fff;fill-rule:nonzero" d="M 0,0 H 2.617 V -9.154 H -5.43 V 0 h 2.614 v 0.566 h -9.517 V 0 h 2.613 v -19.271 h -2.613 v -0.566 h 9.517 v 0.566 H -5.43 v 9.55 h 8.047 v -9.55 H 0 v -0.566 h 9.52 v 0.566 H 6.904 V 0 H 9.52 V 0.566 H 0 Z" />
    </g>
    <g style="fill:#fff">
      <g clip-path="url(#clipPath22)" style="fill:#fff">
        <g transform="translate(383.8823,273.3018)" style="fill:#fff">
          <path style="fill:#fff;fill-rule:nonzero" d="m 0,0 c -0.777,-0.51 -1.871,-0.769 -3.25,-0.769 -1.045,0 -1.958,0.151 -2.712,0.449 -0.747,0.296 -1.365,0.825 -1.836,1.574 -0.474,0.755 -0.829,1.786 -1.054,3.066 -0.226,1.29 -0.34,2.935 -0.34,4.889 0,1.488 0.067,2.873 0.199,4.113 0.13,1.236 0.407,2.317 0.817,3.213 0.407,0.89 1.009,1.591 1.787,2.082 0.781,0.491 1.836,0.741 3.139,0.741 1.397,0 2.505,-0.269 3.292,-0.796 0.79,-0.53 1.385,-1.253 1.775,-2.154 C 2.209,15.503 2.451,14.442 2.534,13.253 2.621,12.058 2.662,10.783 2.662,9.464 2.662,7.995 2.61,6.614 2.507,5.365 2.404,4.12 2.153,3.029 1.761,2.123 1.37,1.223 0.779,0.51 0,0 m 4.095,17.059 c -0.995,0.91 -2.152,1.625 -3.435,2.12 -1.284,0.493 -2.6,0.744 -3.91,0.744 -1.217,0 -2.481,-0.255 -3.754,-0.759 -1.274,-0.503 -2.438,-1.231 -3.465,-2.161 -1.027,-0.933 -1.878,-2.069 -2.535,-3.378 -0.656,-1.316 -0.989,-2.8 -0.989,-4.416 0,-1.483 0.3,-2.882 0.89,-4.156 0.588,-1.273 1.383,-2.395 2.362,-3.336 0.979,-0.942 2.131,-1.693 3.424,-2.235 1.291,-0.541 2.66,-0.816 4.067,-0.816 1.424,0 2.799,0.284 4.083,0.847 1.282,0.559 2.429,1.335 3.407,2.304 0.979,0.968 1.768,2.111 2.35,3.392 0.579,1.285 0.873,2.658 0.873,4.086 0,1.633 -0.313,3.123 -0.932,4.427 -0.618,1.302 -1.438,2.425 -2.436,3.337" />
        </g>
        <g transform="translate(407.2114,283.0312)" style="fill:#fff">
          <path style="fill:#fff;fill-rule:nonzero" d="M 0,0 C -0.572,0.456 -1.234,0.838 -1.969,1.135 -2.692,1.427 -3.45,1.699 -4.221,1.947 -4.987,2.192 -5.736,2.43 -6.467,2.658 -7.186,2.882 -7.836,3.152 -8.398,3.462 -8.954,3.77 -9.41,4.138 -9.75,4.562 c -0.336,0.418 -0.507,0.957 -0.507,1.597 0,0.42 0.101,0.838 0.301,1.241 0.204,0.404 0.503,0.778 0.891,1.111 0.388,0.332 0.872,0.604 1.438,0.808 0.567,0.205 1.232,0.31 1.974,0.31 0.91,0 1.671,-0.16 2.263,-0.475 0.593,-0.316 1.091,-0.734 1.479,-1.242 0.39,-0.514 0.718,-1.094 0.97,-1.727 0.257,-0.652 0.501,-1.309 0.722,-1.957 L -0.198,4.171 H 0.315 V 9.738 H -0.279 L -0.302,9.687 C -0.392,9.471 -0.478,9.32 -0.553,9.245 -0.601,9.198 -0.72,9.142 -1.021,9.142 c -0.215,0 -0.458,0.054 -0.719,0.164 -0.275,0.112 -0.586,0.229 -0.958,0.358 -0.365,0.123 -0.787,0.243 -1.259,0.356 -0.475,0.115 -1.037,0.173 -1.668,0.173 -0.989,0 -1.924,-0.17 -2.773,-0.504 -0.849,-0.333 -1.588,-0.779 -2.199,-1.322 -0.609,-0.543 -1.094,-1.178 -1.441,-1.887 -0.345,-0.711 -0.52,-1.459 -0.52,-2.225 0,-1.031 0.171,-1.904 0.506,-2.595 0.335,-0.69 0.786,-1.276 1.343,-1.747 0.555,-0.469 1.193,-0.855 1.896,-1.149 0.702,-0.295 1.433,-0.554 2.17,-0.773 0.739,-0.218 1.46,-0.43 2.161,-0.637 0.691,-0.208 1.316,-0.463 1.858,-0.762 0.536,-0.295 0.973,-0.67 1.295,-1.113 0.319,-0.437 0.48,-1.003 0.48,-1.683 0,-0.368 -0.074,-0.805 -0.222,-1.298 -0.15,-0.49 -0.407,-0.964 -0.768,-1.407 -0.359,-0.441 -0.86,-0.822 -1.492,-1.127 -0.63,-0.308 -1.449,-0.462 -2.436,-0.462 -0.283,0 -0.59,0.004 -0.921,0.016 -0.322,0.007 -0.668,0.064 -1.03,0.166 -0.362,0.101 -0.749,0.266 -1.149,0.491 -0.399,0.222 -0.819,0.552 -1.246,0.98 -0.392,0.373 -0.727,0.784 -0.996,1.221 -0.272,0.44 -0.5,0.877 -0.677,1.296 -0.176,0.419 -0.314,0.816 -0.408,1.182 -0.093,0.362 -0.16,0.661 -0.197,0.887 l -0.012,0.071 h -0.582 v -6.477 h 0.599 l 0.02,0.055 c 0.089,0.249 0.183,0.413 0.283,0.487 0.1,0.073 0.272,0.112 0.519,0.112 0.18,0 0.463,-0.057 0.842,-0.168 0.385,-0.112 0.824,-0.229 1.341,-0.356 0.488,-0.12 1.036,-0.24 1.623,-0.357 0.582,-0.113 1.175,-0.171 1.765,-0.171 1.18,0 2.264,0.188 3.226,0.558 0.963,0.373 1.804,0.881 2.499,1.51 0.699,0.631 1.246,1.375 1.627,2.216 0.381,0.842 0.576,1.742 0.576,2.677 0,0.956 -0.181,1.774 -0.537,2.429 C 1.043,-1.021 0.572,-0.457 0,0" />
        </g>
        <g transform="translate(418.1841,292.2139)" style="fill:#fff">
          <path style="fill:#fff;fill-rule:nonzero" d="m 0,0 c 0.132,0.016 0.277,0.031 0.436,0.048 0.189,0.018 0.387,0.028 0.588,0.028 1.612,0 2.736,-0.429 3.343,-1.272 0.611,-0.854 0.922,-2.11 0.922,-3.732 0,-1.712 -0.356,-2.939 -1.057,-3.649 C 3.533,-9.287 2.374,-9.646 0.796,-9.646 H 0 Z M 7.113,-0.376 C 6.275,0.014 5.347,0.285 4.361,0.429 3.379,0.569 2.446,0.641 1.594,0.641 0.637,0.641 -0.339,0.627 -1.311,0.599 -2.278,0.571 -3.252,0.556 -4.205,0.556 h -2.699 v -0.567 h 2.614 v -19.271 h -2.614 v -0.566 h 9.518 v 0.566 H 0 v 9.069 h 1.08 c 1.518,0 2.855,0.146 3.972,0.429 1.121,0.286 2.067,0.676 2.811,1.162 0.746,0.489 1.31,1.072 1.676,1.735 0.365,0.663 0.55,1.38 0.55,2.13 0,1.112 -0.289,2.032 -0.857,2.738 -0.565,0.699 -1.277,1.251 -2.119,1.643" />
        </g>
        <g transform="translate(429.9531,292.2031)" style="fill:#fff">
          <path style="fill:#fff;fill-rule:nonzero" d="M 0,0 H 2.613 V -19.271 H 0 v -0.566 h 9.52 v 0.566 H 6.902 V 0 H 9.52 V 0.566 H 0 Z" />
        </g>
        <g transform="translate(460.0586,287.3994)" style="fill:#fff">
          <path style="fill:#fff;fill-rule:nonzero" d="M 0,0 H 0.516 V 5.37 H -17.471 V 0 h 0.516 l 0.018,0.062 c 0.281,0.956 0.593,1.752 0.931,2.371 0.334,0.611 0.719,1.095 1.145,1.437 0.423,0.342 0.908,0.585 1.445,0.724 0.539,0.139 1.164,0.21 1.855,0.21 h 0.94 v -19.272 h -2.615 v -0.565 h 9.517 v 0.565 H -6.332 V 4.804 h 0.937 c 0.692,0 1.317,-0.071 1.856,-0.21 0.535,-0.138 1.023,-0.382 1.447,-0.724 0.426,-0.343 0.811,-0.827 1.145,-1.437 0.334,-0.619 0.648,-1.415 0.929,-2.371 z" />
        </g>
        <g transform="translate(471.875,280.9463)" style="fill:#fff">
          <path style="fill:#fff;fill-rule:nonzero" d="m 0,0 h -6.283 l 3.06,7.46 z m -0.846,12.569 -0.023,0.05 h -0.879 l -8.469,-20.634 h -2.414 V -8.58 h 5.539 v 0.565 H -9.58 l 3.086,7.449 H 0.215 L 3.439,-8.015 H 0.842 V -8.58 h 9.717 v 0.565 H 8.086 Z" />
        </g>
        <g transform="translate(501.7324,278.8906)" style="fill:#fff">
          <path style="fill:#fff;fill-rule:nonzero" d="m 0,0 c -0.244,-1.083 -0.588,-2.017 -1.027,-2.775 -0.44,-0.755 -0.94,-1.38 -1.489,-1.854 -0.548,-0.475 -1.142,-0.818 -1.763,-1.022 -0.623,-0.204 -1.25,-0.308 -1.864,-0.308 h -4.605 v 19.272 h 2.615 v 0.566 h -9.517 v -0.566 h 2.615 V -5.959 H -17.65 V -6.524 H 0.535 V 0.065 H 0.016 Z" />
        </g>
        <g transform="translate(523.168,284.5449)" style="fill:#fff">
          <path style="fill:#fff;fill-rule:nonzero" d="m 0,0 c 0,0.027 -0.006,0.051 -0.016,0.07 -0.017,0.036 -0.05,0.056 -0.091,0.056 h -3.219 c 0.191,0.737 0.517,1.826 0.629,2.194 1.804,5.731 3.103,6.393 3.926,6.393 C 1.887,8.713 2.17,8.425 2.17,7.746 2.17,7.544 2.061,7.294 1.943,7.03 1.797,6.689 1.629,6.305 1.629,5.897 c 0,-0.423 0.176,-1.134 1.363,-1.134 0.776,0 1.563,0.594 1.563,1.732 C 4.555,8.3 2.898,9.108 1.258,9.108 -1.6,9.108 -4.531,6.139 -5.869,1.895 -6.061,1.437 -6.195,0.956 -6.35,0.399 L -6.424,0.126 h -2.863 c -0.115,0 -0.19,-0.18 -0.19,-0.256 l 0.006,-0.044 0.053,-0.067 h 2.891 c -0.524,-1.869 -1.08,-4.149 -1.621,-6.355 -0.721,-2.951 -1.467,-6.002 -2.157,-8.202 l -0.029,-0.087 c -1.437,-4.399 -1.924,-5.881 -3.275,-5.881 -0.536,0 -0.854,0.352 -0.854,0.939 0,0.22 0.119,0.468 0.246,0.732 0.151,0.317 0.322,0.674 0.322,1.06 0,0.433 -0.181,1.164 -1.39,1.164 -0.889,0 -1.533,-0.731 -1.533,-1.733 0,-1.482 1.324,-2.557 3.152,-2.557 2.728,0 4.875,2.427 6.561,7.419 0.689,2.167 1.617,5.695 2.515,9.111 0.391,1.482 0.791,3.015 1.164,4.39 h 3.262 C -0.047,-0.241 0,-0.069 0,0" />
        </g>
        <g transform="translate(530.8379,282.2559)" style="fill:#fff">
          <path style="fill:#fff;fill-rule:nonzero" d="m 0,0 c 0,-1.386 -1.428,-6.846 -2.094,-8.004 -0.674,-1.207 -1.492,-1.747 -2.654,-1.747 -1.236,0 -1.764,0.664 -1.764,2.219 0,1.477 1.485,6.925 2.092,8.003 0.723,1.244 1.518,1.777 2.656,1.777 C -0.527,2.248 0,1.574 0,0 m -1.85,2.643 c -3.836,0 -7.332,-3.78 -7.332,-7.928 0,-2.818 1.912,-4.861 4.547,-4.861 3.838,0 7.332,3.78 7.332,7.93 0,2.816 -1.912,4.859 -4.547,4.859" />
        </g>
        <g transform="translate(544.6172,284.8984)" style="fill:#fff">
          <path style="fill:#fff;fill-rule:nonzero" d="m 0,0 c -1.291,0 -2.41,-1.083 -3.658,-3.582 0.277,1.215 0.195,2.173 -0.248,2.8 C -4.271,-0.271 -4.865,0 -5.627,0 -6.641,0 -8.133,-0.69 -9.002,-2.637 l -0.031,-0.069 0.345,-0.195 0.038,0.081 c 0.562,1.198 1.267,1.914 1.886,1.914 0.2,0 0.364,-0.075 0.469,-0.218 0.164,-0.226 0.182,-0.604 0.049,-1.037 l -3.27,-10.262 -0.035,-0.109 h 3.104 l 2.119,6.697 c 1.82,3.76 2.605,4.53 3.221,4.53 0.566,0 0.683,-0.261 0.683,-0.654 0,-0.202 -0.07,-0.333 -0.154,-0.483 -0.1,-0.186 -0.215,-0.396 -0.215,-0.769 0,-0.593 0.527,-1.191 1.533,-1.191 0.951,0 1.588,1.055 1.588,2.045 C 2.328,-0.991 1.35,0 0,0" />
        </g>
        <g transform="translate(582.0215,292.7695)" style="fill:#fff">
          <path style="fill:#fff;fill-rule:nonzero" d="m 0,0 h -5.396 v -0.566 h 2.41 l -5.168,-14.749 -5.057,14.749 H -10.6 V 0 h -8.666 v -0.566 h 1.557 l 2.189,-6.423 -2.923,-8.298 -5.028,14.721 h 2.043 V 0 h -8.867 v -0.566 h 2.356 l 7.029,-20.548 0.019,-0.057 h 0.944 l 4.742,13.355 4.611,-13.298 0.02,-0.057 h 0.943 l 7.305,20.605 H 0 Z" />
        </g>
        <g transform="translate(595.4043,273.3018)" style="fill:#fff">
          <path style="fill:#fff;fill-rule:nonzero" d="m 0,0 c -0.775,-0.51 -1.869,-0.769 -3.25,-0.769 -1.045,0 -1.957,0.151 -2.711,0.449 -0.746,0.296 -1.365,0.825 -1.836,1.574 -0.474,0.755 -0.828,1.786 -1.055,3.066 -0.224,1.29 -0.339,2.935 -0.339,4.889 0,1.488 0.068,2.873 0.199,4.113 0.131,1.236 0.406,2.317 0.816,3.213 0.408,0.89 1.01,1.591 1.787,2.082 0.782,0.491 1.836,0.741 3.139,0.741 1.398,0 2.506,-0.269 3.295,-0.796 0.787,-0.53 1.383,-1.253 1.773,-2.154 C 2.209,15.503 2.451,14.442 2.535,13.253 2.621,12.058 2.662,10.783 2.662,9.464 2.662,7.995 2.611,6.614 2.508,5.365 2.404,4.12 2.152,3.029 1.762,2.123 1.371,1.223 0.779,0.51 0,0 m 4.096,17.059 c -0.994,0.91 -2.153,1.625 -3.436,2.12 -1.283,0.493 -2.599,0.744 -3.91,0.744 -1.217,0 -2.479,-0.255 -3.754,-0.759 -1.271,-0.503 -2.437,-1.231 -3.465,-2.161 -1.025,-0.933 -1.879,-2.069 -2.533,-3.378 -0.656,-1.316 -0.99,-2.8 -0.99,-4.416 0,-1.483 0.299,-2.882 0.888,-4.156 0.59,-1.273 1.383,-2.395 2.364,-3.336 0.98,-0.942 2.131,-1.693 3.424,-2.235 1.291,-0.541 2.66,-0.816 4.066,-0.816 1.426,0 2.801,0.284 4.084,0.847 1.281,0.559 2.428,1.335 3.408,2.304 0.977,0.968 1.766,2.111 2.348,3.392 0.58,1.285 0.875,2.658 0.875,4.086 0,1.633 -0.315,3.123 -0.932,4.427 -0.619,1.302 -1.439,2.425 -2.437,3.337" />
        </g>
        <g transform="translate(616.793,278.7031)" style="fill:#fff">
          <path style="fill:#fff;fill-rule:nonzero" d="m 0,0 -4.865,14.011 -0.02,0.055 h -7.447 V 13.5 h 2.613 V -5.771 h -2.613 v -0.566 h 5.85 v 0.566 h -2.614 v 19.029 l 6.914,-19.54 0.02,-0.055 h 0.574 L 5.316,13.257 V -5.771 H 2.73 v -0.566 h 9.491 v 0.566 H 9.605 V 13.5 h 2.616 v 0.566 h -7.25 z" />
        </g>
        <g transform="translate(649.1426,278.6924)" style="fill:#fff">
          <path style="fill:#fff;fill-rule:nonzero" d="M 0,0 C -0.187,-0.803 -0.461,-1.566 -0.816,-2.268 -1.174,-2.97 -1.621,-3.589 -2.15,-4.108 -2.682,-4.629 -3.297,-5.037 -3.986,-5.327 -4.672,-5.615 -5.457,-5.761 -6.312,-5.761 h -4.579 V 4.331 h 1.823 c 0.644,0 1.191,-0.111 1.625,-0.33 0.429,-0.223 0.798,-0.524 1.093,-0.902 0.295,-0.381 0.536,-0.827 0.711,-1.327 0.178,-0.501 0.334,-1.035 0.467,-1.582 l 0.014,-0.065 h 0.521 V 9.133 H -5.158 L -5.172,9.065 C -5.303,8.428 -5.475,7.845 -5.68,7.332 -5.887,6.819 -6.148,6.378 -6.461,6.019 -6.773,5.662 -7.168,5.383 -7.639,5.188 -8.107,4.996 -8.695,4.898 -9.383,4.898 h -1.508 v 8.613 h 4.436 c 0.91,0 1.691,-0.174 2.318,-0.515 0.633,-0.346 1.157,-0.756 1.555,-1.218 0.4,-0.464 0.715,-0.949 0.939,-1.443 0.227,-0.5 0.387,-0.913 0.479,-1.225 l 0.018,-0.061 h 0.517 v 5.028 h -17.164 v -0.566 h 2.613 V -5.761 h -2.613 V -6.326 H 0.535 V 0.065 H 0.014 Z" />
        </g>
        <g transform="translate(665.3418,292.7695)" style="fill:#fff">
          <path style="fill:#fff;fill-rule:nonzero" d="M 0,0 V -0.566 H 2.615 V -13.427 L -6.752,-0.035 -6.777,0 h -6.834 v -0.566 h 2.613 v -19.272 h -2.613 v -0.565 h 5.849 v 0.565 h -2.615 V -2.286 L 2.318,-20.369 2.342,-20.403 H 3.236 V -0.566 H 5.852 V 0 Z" />
        </g>
        <g transform="translate(246.9067,269.0732)" style="fill:#fff">
          <path style="fill:#fff;fill-rule:nonzero" d="M 0,0 C -0.497,1.996 0.719,4.021 2.717,4.516 4.712,5.014 6.732,3.794 7.235,1.796 l 4.533,-18.247 c 0.495,-1.997 -0.718,-4.015 -2.715,-4.507 -1.992,-0.498 -4.023,0.714 -4.514,2.708 z" />
        </g>
        <g transform="translate(270.6606,269.0732)" style="fill:#fff">
          <path style="fill:#fff;fill-rule:nonzero" d="M 0,0 C 0.502,1.996 -0.719,4.021 -2.715,4.516 -4.711,5.014 -6.731,3.794 -7.226,1.796 l -4.54,-18.247 c -0.494,-1.997 0.722,-4.015 2.722,-4.507 1.995,-0.498 4.017,0.714 4.507,2.708 z" />
        </g>
        <g transform="translate(270.6606,226.9687)" style="fill:#fff">
          <path style="fill:#fff;fill-rule:nonzero" d="m 0,0 c 0.502,-1.996 -0.719,-4.013 -2.715,-4.508 -1.996,-0.503 -4.016,0.712 -4.511,2.708 l -4.54,18.249 c -0.494,2 0.722,4.025 2.722,4.518 1.995,0.496 4.017,-0.724 4.507,-2.719 z" />
        </g>
        <g transform="translate(246.9067,226.9687)" style="fill:#fff">
          <path style="fill:#fff;fill-rule:nonzero" d="m 0,0 c -0.497,-1.996 0.721,-4.013 2.717,-4.508 1.995,-0.503 4.015,0.712 4.518,2.708 l 4.533,18.249 c 0.495,2 -0.718,4.025 -2.715,4.518 C 7.061,21.463 5.03,20.243 4.539,18.248 Z" />
        </g>
        <g transform="translate(221.7485,368.3096)" style="fill:#fff">
          <path style="fill:#fff;fill-rule:nonzero" d="m 0,0 c -0.495,1.995 0.717,4.015 2.718,4.514 2,0.492 4.017,-0.721 4.508,-2.716 l 4.538,-18.252 c 0.498,-1.996 -0.719,-4.015 -2.714,-4.51 -1.995,-0.496 -4.015,0.721 -4.518,2.718 z" />
        </g>
        <g transform="translate(245.5039,368.3096)" style="fill:#fff">
          <path style="fill:#fff;fill-rule:nonzero" d="M 0,0 C 0.49,1.995 -0.723,4.015 -2.719,4.514 -4.716,5.006 -6.735,3.793 -7.23,1.798 l -4.535,-18.252 c -0.502,-1.996 0.716,-4.015 2.713,-4.51 1.994,-0.496 4.016,0.721 4.517,2.718 z" />
        </g>
        <g transform="translate(245.5063,326.2061)" style="fill:#fff">
          <path style="fill:#fff;fill-rule:nonzero" d="m 0,0 c 0.488,-1.995 -0.725,-4.021 -2.721,-4.513 -1.997,-0.501 -4.017,0.721 -4.511,2.717 l -4.535,18.246 c -0.502,1.996 0.718,4.015 2.713,4.517 1.993,0.491 4.016,-0.724 4.516,-2.717 z" />
        </g>
        <g transform="translate(221.7485,326.2061)" style="fill:#fff">
          <path style="fill:#fff;fill-rule:nonzero" d="m 0,0 c -0.495,-1.995 0.717,-4.021 2.718,-4.513 2,-0.501 4.017,0.721 4.508,2.717 L 11.764,16.45 C 12.262,18.446 11.045,20.465 9.05,20.967 7.055,21.458 5.035,20.243 4.532,18.25 Z" />
        </g>
        <g transform="translate(217.6738,322.1309)" style="fill:#fff">
          <path style="fill:#fff;fill-rule:nonzero" d="M 0,0 C 1.998,0.499 4.018,-0.72 4.516,-2.719 5.012,-4.717 3.795,-6.736 1.798,-7.23 l -18.246,-4.532 c -1.997,-0.502 -4.018,0.717 -4.511,2.714 -0.5,1.994 0.715,4.019 2.711,4.512 z" />
        </g>
        <g transform="translate(217.6738,298.373)" style="fill:#fff">
          <path style="fill:#fff;fill-rule:nonzero" d="M 0,0 C 1.998,-0.493 4.018,0.723 4.516,2.718 5.012,4.716 3.795,6.735 1.798,7.235 l -18.246,4.54 c -1.997,0.493 -4.018,-0.719 -4.511,-2.72 -0.5,-1.998 0.715,-4.016 2.711,-4.511 z" />
        </g>
        <g transform="translate(175.5718,298.373)" style="fill:#fff">
          <path style="fill:#fff;fill-rule:nonzero" d="m 0,0 c -1.995,-0.493 -4.021,0.723 -4.516,2.718 -0.496,1.998 0.721,4.017 2.717,4.517 L 16.45,11.77 c 1.997,0.498 4.016,-0.714 4.514,-2.715 C 21.458,7.057 20.246,5.039 18.25,4.544 Z" />
        </g>
        <g transform="translate(175.5718,322.1309)" style="fill:#fff">
          <path style="fill:#fff;fill-rule:nonzero" d="m 0,0 c -1.995,0.499 -4.021,-0.72 -4.516,-2.719 -0.496,-1.998 0.721,-4.017 2.717,-4.511 l 18.249,-4.532 c 1.997,-0.502 4.016,0.717 4.514,2.714 0.494,1.994 -0.718,4.019 -2.714,4.512 z" />
        </g>
        <g transform="translate(316.8437,322.1309)" style="fill:#fff">
          <path style="fill:#fff;fill-rule:nonzero" d="M 0,0 C 1.996,0.499 4.015,-0.72 4.509,-2.719 5.001,-4.717 3.792,-6.736 1.797,-7.23 l -18.25,-4.532 c -1.999,-0.502 -4.017,0.717 -4.514,2.714 -0.498,1.994 0.717,4.019 2.717,4.512 z" />
        </g>
        <g transform="translate(316.8437,298.373)" style="fill:#fff">
          <path style="fill:#fff;fill-rule:nonzero" d="M 0,0 C 1.996,-0.493 4.015,0.723 4.509,2.718 5.001,4.716 3.792,6.735 1.797,7.235 l -18.25,4.54 c -1.999,0.493 -4.017,-0.719 -4.514,-2.72 -0.498,-1.998 0.717,-4.016 2.717,-4.511 z" />
        </g>
        <g transform="translate(274.7358,298.373)" style="fill:#fff">
          <path style="fill:#fff;fill-rule:nonzero" d="m 0,0 c -2.001,-0.493 -4.021,0.723 -4.512,2.718 -0.5,1.998 0.721,4.017 2.715,4.517 l 18.248,4.535 c 1.999,0.498 4.016,-0.714 4.51,-2.715 0.5,-1.998 -0.716,-4.016 -2.711,-4.511 z" />
        </g>
        <g transform="translate(274.7358,322.1309)" style="fill:#fff">
          <path style="fill:#fff;fill-rule:nonzero" d="m 0,0 c -2.001,0.499 -4.021,-0.72 -4.512,-2.719 -0.5,-1.998 0.721,-4.017 2.715,-4.511 l 18.248,-4.532 c 1.999,-0.502 4.016,0.717 4.51,2.714 0.5,1.994 -0.716,4.019 -2.711,4.512 z" />
        </g>
        <g transform="translate(221.7485,269.0732)" style="fill:#fff">
          <path style="fill:#fff;fill-rule:nonzero" d="m 0,0 c -0.495,1.996 0.717,4.021 2.718,4.516 2,0.498 4.017,-0.722 4.508,-2.72 l 4.538,-18.247 c 0.498,-1.997 -0.719,-4.015 -2.714,-4.507 -1.995,-0.498 -4.015,0.714 -4.518,2.708 z" />
        </g>
        <g transform="translate(245.5039,269.0732)" style="fill:#fff">
          <path style="fill:#fff;fill-rule:nonzero" d="M 0,0 C 0.49,1.996 -0.723,4.021 -2.719,4.516 -4.716,5.014 -6.735,3.794 -7.23,1.796 l -4.535,-18.247 c -0.502,-1.997 0.716,-4.015 2.713,-4.507 1.994,-0.498 4.016,0.714 4.517,2.708 z" />
        </g>
        <g transform="translate(245.5063,226.9687)" style="fill:#fff">
          <path style="fill:#fff;fill-rule:nonzero" d="m 0,0 c 0.488,-1.996 -0.725,-4.013 -2.721,-4.508 -1.997,-0.503 -4.017,0.712 -4.511,2.708 l -4.535,18.249 c -0.502,2 0.718,4.025 2.713,4.518 1.993,0.496 4.016,-0.724 4.516,-2.719 z" />
        </g>
        <g transform="translate(221.7485,226.9687)" style="fill:#fff">
          <path style="fill:#fff;fill-rule:nonzero" d="m 0,0 c -0.495,-1.996 0.717,-4.013 2.718,-4.508 2,-0.503 4.017,0.712 4.508,2.708 l 4.538,18.249 c 0.498,2 -0.719,4.025 -2.714,4.518 -1.995,0.496 -4.015,-0.724 -4.518,-2.719 z" />
        </g>
        <g transform="translate(246.9067,368.3096)" style="fill:#fff">
          <path style="fill:#fff;fill-rule:nonzero" d="M 0,0 C -0.497,1.995 0.719,4.015 2.717,4.514 4.712,5.006 6.732,3.793 7.235,1.798 l 4.533,-18.252 c 0.495,-1.996 -0.718,-4.015 -2.715,-4.51 -1.992,-0.496 -4.023,0.721 -4.514,2.718 z" />
        </g>
        <g transform="translate(270.6606,368.3096)" style="fill:#fff">
          <path style="fill:#fff;fill-rule:nonzero" d="M 0,0 C 0.502,1.995 -0.719,4.015 -2.715,4.514 -4.711,5.006 -6.731,3.793 -7.226,1.798 l -4.54,-18.252 c -0.494,-1.996 0.722,-4.015 2.722,-4.51 1.995,-0.496 4.017,0.721 4.507,2.718 z" />
        </g>
        <g transform="translate(270.6606,326.2061)" style="fill:#fff">
          <path style="fill:#fff;fill-rule:nonzero" d="m 0,0 c 0.502,-1.995 -0.719,-4.021 -2.715,-4.513 -1.996,-0.501 -4.016,0.721 -4.511,2.717 l -4.54,18.246 c -0.494,1.996 0.722,4.015 2.722,4.517 1.995,0.491 4.017,-0.724 4.507,-2.717 z" />
        </g>
        <g transform="translate(246.9067,326.2061)" style="fill:#fff">
          <path style="fill:#fff;fill-rule:nonzero" d="m 0,0 c -0.497,-1.995 0.721,-4.021 2.717,-4.513 1.995,-0.501 4.015,0.721 4.518,2.717 L 11.768,16.45 C 12.263,18.446 11.05,20.465 9.053,20.967 7.061,21.458 5.03,20.243 4.539,18.25 Z" />
        </g>
        <g transform="translate(217.6738,296.9731)" style="fill:#fff">
          <path style="fill:#fff;fill-rule:nonzero" d="M 0,0 C 1.998,0.496 4.018,-0.721 4.516,-2.714 5.012,-4.708 3.795,-6.736 1.798,-7.23 l -18.246,-4.536 c -1.997,-0.499 -4.018,0.715 -4.511,2.709 -0.5,1.996 0.715,4.021 2.711,4.518 z" />
        </g>
        <g transform="translate(217.6738,273.2178)" style="fill:#fff">
          <path style="fill:#fff;fill-rule:nonzero" d="M 0,0 C 1.998,-0.499 4.018,0.719 4.516,2.715 5.012,4.713 3.795,6.735 1.798,7.227 l -18.246,4.538 c -1.997,0.5 -4.018,-0.724 -4.511,-2.718 -0.5,-1.995 0.715,-4.012 2.711,-4.52 z" />
        </g>
        <g transform="translate(175.5718,273.2178)" style="fill:#fff">
          <path style="fill:#fff;fill-rule:nonzero" d="m 0,0 c -1.995,-0.499 -4.021,0.719 -4.516,2.715 -0.496,1.998 0.721,4.02 2.717,4.512 l 18.249,4.538 c 1.997,0.5 4.016,-0.724 4.514,-2.718 0.494,-1.995 -0.718,-4.012 -2.714,-4.52 z" />
        </g>
        <g transform="translate(175.5718,296.9731)" style="fill:#fff">
          <path style="fill:#fff;fill-rule:nonzero" d="m 0,0 c -1.995,0.496 -4.021,-0.721 -4.516,-2.714 -0.496,-1.994 0.721,-4.022 2.717,-4.516 l 18.249,-4.536 c 1.997,-0.499 4.016,0.715 4.514,2.709 0.494,1.996 -0.718,4.021 -2.714,4.518 z" />
        </g>
        <g transform="translate(316.8437,296.9731)" style="fill:#fff">
          <path style="fill:#fff;fill-rule:nonzero" d="M 0,0 C 1.996,0.496 4.015,-0.721 4.509,-2.714 5.001,-4.708 3.792,-6.736 1.797,-7.23 l -18.25,-4.536 c -1.999,-0.499 -4.017,0.715 -4.514,2.709 -0.498,1.996 0.717,4.021 2.717,4.518 z" />
        </g>
        <g transform="translate(316.8437,273.2178)" style="fill:#fff">
          <path style="fill:#fff;fill-rule:nonzero" d="M 0,0 C 1.996,-0.499 4.015,0.719 4.509,2.715 5.001,4.713 3.792,6.735 1.797,7.227 l -18.25,4.538 c -1.999,0.5 -4.017,-0.724 -4.514,-2.718 -0.498,-1.995 0.717,-4.012 2.717,-4.52 z" />
        </g>
        <g transform="translate(274.7358,273.2178)" style="fill:#fff">
          <path style="fill:#fff;fill-rule:nonzero" d="m 0,0 c -2.001,-0.499 -4.021,0.719 -4.512,2.715 -0.5,1.998 0.721,4.02 2.715,4.512 l 18.248,4.538 c 1.999,0.5 4.016,-0.724 4.51,-2.718 0.5,-1.995 -0.716,-4.012 -2.711,-4.52 z" />
        </g>
        <g transform="translate(274.7358,296.9731)" style="fill:#fff">
          <path style="fill:#fff;fill-rule:nonzero" d="m 0,0 c -2.001,0.496 -4.021,-0.721 -4.512,-2.714 -0.5,-1.994 0.721,-4.022 2.715,-4.516 l 18.248,-4.536 c 1.999,-0.499 4.016,0.715 4.51,2.709 0.5,1.996 -0.716,4.021 -2.711,4.518 z" />
        </g>
        <g transform="translate(354.7104,322.6929)" style="fill:#fff">
          <path style="fill:#fff;fill-rule:nonzero" d="m 0,0 c 2.315,0 3.994,-0.738 5.554,-2.145 0.207,-0.179 0.207,-0.448 0.021,-0.638 l -1.399,-1.45 c -0.16,-0.178 -0.39,-0.178 -0.578,0 -0.96,0.858 -2.249,1.357 -3.536,1.357 -2.947,0 -5.124,-2.454 -5.124,-5.354 0,-2.875 2.207,-5.304 5.146,-5.304 1.384,0 2.554,0.522 3.514,1.307 0.188,0.166 0.438,0.132 0.578,0 L 5.595,-13.7 c 0.187,-0.151 0.14,-0.449 -0.02,-0.612 -1.559,-1.513 -3.543,-2.23 -5.575,-2.23 -4.592,0 -8.292,3.65 -8.292,8.245 C -8.292,-3.701 -4.592,0 0,0" />
        </g>
        <g transform="translate(363.0625,321.9126)" style="fill:#fff">
          <path style="fill:#fff;fill-rule:nonzero" d="M 0,0 C 0,0.291 0.234,0.547 0.542,0.547 H 2.569 C 2.862,0.547 3.114,0.291 3.114,0 v -6.197 l 5.799,6.518 c 0.093,0.11 0.238,0.226 0.443,0.226 h 2.287 c 0.436,0 0.673,-0.484 0.371,-0.833 l -5.996,-6.758 6.432,-7.69 c 0.236,-0.291 0.047,-0.801 -0.414,-0.801 H 9.545 c -0.24,0 -0.376,0.095 -0.42,0.166 l -6.011,7.394 v -7.003 c 0,-0.297 -0.252,-0.557 -0.545,-0.557 H 0.542 c -0.308,0 -0.542,0.26 -0.542,0.557 z" />
        </g>
        <g transform="translate(389.5464,309.0903)" style="fill:#fff">
          <path style="fill:#fff;fill-rule:nonzero" d="m 0,0 c 1.147,0 2.067,0.894 2.067,2.089 0,1.159 -1.15,2 -2.348,2 H -2.788 V 0 Z m -0.32,6.625 c 1.162,0 1.965,0.909 1.965,2.053 0,1.152 -0.803,1.958 -1.965,1.958 H -2.788 V 6.625 Z m -5.432,6.313 c 0,0.222 0.198,0.431 0.443,0.431 h 5.258 c 2.735,0 4.855,-1.838 4.855,-4.249 C 4.804,7.356 3.36,5.969 2.273,5.468 3.492,5.083 5.262,3.84 5.262,1.718 c 0,-2.563 -2.204,-4.43 -5.008,-4.43 h -5.563 c -0.245,0 -0.443,0.212 -0.443,0.435 z" />
        </g>
        <g transform="translate(397.8638,322.0278)" style="fill:#fff">
          <path style="fill:#fff;fill-rule:nonzero" d="M 0,0 C 0,0.223 0.212,0.432 0.444,0.432 H 2.571 C 2.802,0.432 3.009,0.223 3.009,0 v -15.215 c 0,-0.223 -0.207,-0.435 -0.438,-0.435 H 0.444 C 0.212,-15.65 0,-15.438 0,-15.215 Z" />
        </g>
        <g transform="translate(411.6802,315.1323)" style="fill:#fff">
          <path style="fill:#fff;fill-rule:nonzero" d="M 0,0 C 1.211,0 2.266,1.058 2.266,2.341 2.266,3.561 1.211,4.566 0,4.566 H -3.749 V 0 Z m -6.761,6.896 c 0,0.222 0.188,0.431 0.447,0.431 h 6.563 c 2.763,0 5.005,-2.206 5.005,-4.935 0,-2.114 -1.405,-3.836 -3.391,-4.644 L 5,-8.093 C 5.164,-8.379 5,-8.754 4.623,-8.754 H 2.205 c -0.207,0 -0.323,0.117 -0.373,0.212 l -3.05,6.086 h -2.553 v -5.863 c 0,-0.223 -0.206,-0.435 -0.427,-0.435 h -2.116 c -0.259,0 -0.447,0.212 -0.447,0.435 z" />
        </g>
        <g transform="translate(420.1636,322.0278)" style="fill:#fff">
          <path style="fill:#fff;fill-rule:nonzero" d="M 0,0 C 0,0.223 0.18,0.432 0.442,0.432 H 2.554 C 2.771,0.432 2.99,0.223 2.99,0 v -12.893 h 5.853 c 0.257,0 0.435,-0.198 0.435,-0.426 v -1.896 c 0,-0.223 -0.178,-0.435 -0.435,-0.435 H 0.442 C 0.18,-15.65 0,-15.438 0,-15.215 Z" />
        </g>
        <g transform="translate(441.7773,311.8721)" style="fill:#fff">
          <path style="fill:#fff;fill-rule:nonzero" d="M 0,0 -2.287,5.047 H -2.355 L -4.602,0 Z m -9.901,-4.885 7.143,15.448 c 0.068,0.14 0.173,0.258 0.376,0.258 h 0.229 c 0.231,0 0.333,-0.118 0.401,-0.258 L 5.324,-4.885 C 5.47,-5.197 5.274,-5.494 4.92,-5.494 H 2.924 c -0.328,0 -0.505,0.142 -0.657,0.464 l -1.13,2.482 H -5.727 L -6.846,-5.03 c -0.092,-0.228 -0.322,-0.464 -0.672,-0.464 h -2.005 c -0.332,0 -0.52,0.297 -0.378,0.609" />
        </g>
      </g>
    </g>
  </g>
</svg>